<?xml version="1.0" encoding="UTF-8"?>
<svg width="498px" height="305px" viewBox="0 0 498 305" version="1.1" xmlns="http://www.w3.org/2000/svg" xmlns:xlink="http://www.w3.org/1999/xlink">
    <title>WP Shuttle Logo</title>
    <desc></desc>
    <defs></defs>
    <g id="wp-shuttle-logo" stroke="none" stroke-width="1" fill="none" fill-rule="evenodd">
        <g id="Artboard" fill="#000000">
            <g id="Group-5" transform="translate(65.523605, 132.047210)">
                <polygon id="Path" points="70.3519313 56.3261803 47.3819742 56.3261803 44.6008584 28.1030043 44.3948498 28.1030043 30.2832618 56.3261803 7.41630901 56.3261803 0 2.14592275 24.1030043 2.14592275 25.2360515 30.8841202 25.6480687 30.8841202 38.7296137 2.14592275 61.0815451 2.14592275 62.9356223 30.8841202 63.2446352 30.8841202 75.9141631 2.14592275 100.120172 2.14592275"></polygon>
                <polygon id="Path" points="296.137339 133.665236 309.83691 55.7939914 333.424893 55.7939914 319.725322 133.665236"></polygon>
                <path d="M351.690987,111.347639 C351.622317,111.553649 351.587983,111.79399 351.587983,112.06867 C351.587983,113.236057 351.896993,114.180254 352.515021,114.901288 C353.13305,115.622321 353.888408,116.206006 354.781116,116.652361 C355.673824,117.098715 356.635188,117.407724 357.665236,117.579399 C358.695284,117.751074 359.622313,117.83691 360.446352,117.83691 C362.163099,117.83691 363.845485,117.545067 365.493562,116.961373 C367.141639,116.377679 368.618019,115.467817 369.922747,114.23176 L385.476395,124.944206 C381.905562,128.583709 377.819765,131.124456 373.218884,132.566524 C368.618003,134.008591 363.845518,134.729614 358.901288,134.729614 C355.055775,134.729614 351.399159,134.214597 347.93133,133.184549 C344.463502,132.154501 341.442073,130.609452 338.866953,128.549356 C336.291833,126.48926 334.248935,123.931346 332.738197,120.875536 C331.22746,117.819727 330.472103,114.23178 330.472103,110.111588 C330.472103,105.510707 331.296129,101.201737 332.944206,97.1845494 C334.592283,93.1673619 336.909856,89.6824182 339.896996,86.7296137 C342.884135,83.7768093 346.454915,81.4592359 350.609442,79.776824 C354.763969,78.0944122 359.347614,77.2532189 364.360515,77.2532189 C368.343368,77.2532189 371.914147,77.8197368 375.072961,78.9527897 C378.231775,80.0858426 380.90986,81.6995603 383.107296,83.7939914 C385.304732,85.8884225 387.004286,88.4291696 388.206009,91.416309 C389.407731,94.4034484 390.008584,97.7510544 390.008584,101.459227 C390.008584,102.969965 389.888413,104.618017 389.648069,106.403433 C389.407724,108.18885 389.047213,109.836902 388.566524,111.347639 L351.690987,111.347639 Z M372.06867,99.0901288 C372.137339,98.8841191 372.171674,98.6609454 372.171674,98.4206009 L372.171674,97.8540773 C372.171674,96.1373305 371.536487,94.7639536 370.266094,93.7339056 C368.995702,92.7038575 367.227479,92.1888412 364.961373,92.1888412 C363.519306,92.1888412 362.231765,92.4291821 361.098712,92.9098712 C359.96566,93.3905603 358.987129,93.9742455 358.16309,94.6609442 C357.339052,95.3476429 356.66953,96.085833 356.154506,96.8755365 C355.639482,97.66524 355.278971,98.40343 355.072961,99.0901288 L372.06867,99.0901288 Z" id="Combined-Shape"></path>
                <path d="M266.403433,78.7811159 L247.450644,78.7811159 L249.613734,66.5236052 L227.261803,66.5236052 L225.098712,78.7811159 L217.476395,78.7811159 L214.592275,95.3648069 L222.626609,95.3648069 L219.021459,115.244635 C218.884119,116.068674 218.763949,116.961369 218.660944,117.922747 C218.557939,118.884125 218.506438,119.742485 218.506438,120.497854 C218.506438,123.313319 219.038621,125.613725 220.103004,127.399142 C221.167387,129.184558 222.557931,130.59227 224.274678,131.622318 C225.991425,132.652366 227.948487,133.373388 230.145923,133.785408 C232.343359,134.197427 234.575096,134.403433 236.841202,134.403433 C238.969968,134.403433 241.167371,134.231761 243.433476,133.888412 C245.699582,133.545063 247.278965,133.098715 248.171674,132.549356 L250.95279,116.686695 C250.403431,116.824035 249.716742,116.961373 248.892704,117.098712 C248.068665,117.236052 247.244639,117.304721 246.420601,117.304721 C244.978534,117.304721 243.862665,117.047213 243.072961,116.532189 C242.283258,116.017165 241.888412,114.969965 241.888412,113.390558 C241.888412,113.047209 241.905579,112.600861 241.939914,112.051502 C241.974249,111.502143 242.025751,111.021461 242.094421,110.609442 L244.875536,95.3648069 L263.93133,95.3648069 L260.32618,115.244635 C260.188841,116.068674 260.06867,116.961369 259.965665,117.922747 C259.86266,118.884125 259.811159,119.742485 259.811159,120.497854 C259.811159,123.313319 260.343342,125.613725 261.407725,127.399142 C262.472108,129.184558 263.862652,130.59227 265.579399,131.622318 C267.296146,132.652366 269.253208,133.373388 271.450644,133.785408 C273.64808,134.197427 275.879817,134.403433 278.145923,134.403433 C280.274689,134.403433 282.472092,134.231761 284.738197,133.888412 C287.004303,133.545063 288.583687,133.098715 289.476395,132.549356 L292.257511,116.686695 C291.708152,116.824035 291.021463,116.961373 290.197425,117.098712 C289.373386,117.236052 288.54936,117.304721 287.725322,117.304721 C286.283255,117.304721 285.167386,117.047213 284.377682,116.532189 C283.587979,116.017165 283.193133,114.969965 283.193133,113.390558 C283.193133,113.047209 283.2103,112.600861 283.244635,112.051502 C283.27897,111.502143 283.330472,111.021461 283.399142,110.609442 L286.180258,95.3648069 L296.274678,95.3648069 L299.158798,78.7811159 L288.755365,78.7811159 L290.918455,66.5236052 L268.566524,66.5236052 L266.403433,78.7811159 Z" id="Combined-Shape"></path>
                <path d="M37.4935622,114.094421 C39.2789789,115.879837 41.3390441,117.21888 43.6738197,118.111588 C46.0085954,119.004296 48.1716639,119.450644 50.1630901,119.450644 C51.5364876,119.450644 52.6180218,119.261804 53.4077253,118.88412 C54.1974288,118.506436 54.5922747,117.905584 54.5922747,117.081545 C54.5922747,116.257507 54.0600912,115.570818 52.9957082,115.021459 C51.9313252,114.4721 50.5751155,113.957084 48.9270386,113.476395 C46.5235931,112.789696 44.3776918,112.000004 42.4892704,111.107296 C40.6008489,110.214588 38.9871312,109.150221 37.6480687,107.914163 C36.3090062,106.678105 35.2789736,105.23606 34.5579399,103.587983 C33.8369063,101.939906 33.4763948,100.017178 33.4763948,97.8197425 C33.4763948,94.4549188 34.2145849,91.5021586 35.6909871,88.9613734 C37.1673894,86.4205882 39.1244513,84.3261885 41.5622318,82.6781116 C44.0000122,81.0300347 46.7467658,79.7939955 49.8025751,78.9699571 C52.8583844,78.1459186 55.931315,77.7339056 59.0214592,77.7339056 C63.2789912,77.7339056 67.3819545,78.3347579 71.3304721,79.5364807 C75.2789897,80.7382034 78.489258,82.4377573 80.9613734,84.6351931 L69.1158798,98.2317597 C67.948492,96.995702 66.3347742,95.9485021 64.2746781,95.0901288 C62.214582,94.2317554 60.1888512,93.8025751 58.1974249,93.8025751 C56.8240275,93.8025751 55.7081588,93.9914144 54.8497854,94.3690987 C53.991412,94.746783 53.5622318,95.3476354 53.5622318,96.1716738 C53.5622318,96.8583725 53.9227432,97.3905561 54.6437768,97.7682403 C55.3648105,98.1459246 56.6180168,98.5751049 58.4034335,99.055794 C60.9442187,99.6738228 63.2617921,100.446347 65.3562232,101.373391 C67.4506542,102.300434 69.2532113,103.416302 70.7639485,104.72103 C72.2746857,106.025758 73.442056,107.570807 74.2660944,109.356223 C75.0901329,111.14164 75.5021459,113.236039 75.5021459,115.639485 C75.5021459,119.278988 74.695287,122.369086 73.0815451,124.909871 C71.4678031,127.450656 69.4077379,129.510722 66.9012876,131.090129 C64.3948373,132.669536 61.6137492,133.802572 58.5579399,134.48927 C55.5021306,135.175969 52.4978688,135.519313 49.5450644,135.519313 C45.6308817,135.519313 41.5107512,134.969963 37.1845494,133.871245 C32.8583475,132.772527 29.0472268,130.849799 25.751073,128.103004 L37.4935622,114.094421 Z" id="Path"></path>
                <path d="M80.6523605,133.665236 L104.137339,1.2360515 L125.974249,1.2360515 L125.150215,7.10729614 C126.935631,4.90986026 129.167369,3.17597202 131.845494,1.9055794 C134.523619,0.635186781 137.40771,0 140.497854,0 C144.137357,0 147.347626,0.600852361 150.128755,1.80257511 C152.909885,3.00429785 155.227459,4.65235004 157.081545,6.74678112 C158.935632,8.84121219 160.343343,11.2961233 161.304721,14.111588 C162.266099,16.9270527 162.746781,19.9484817 162.746781,23.1759657 C162.746781,27.776847 161.991424,32.1201512 160.480687,36.2060086 C158.96995,40.2918659 156.858383,43.8454785 154.145923,46.8669528 C151.433463,49.8884271 148.240362,52.2918366 144.566524,54.0772532 C140.892685,55.8626699 136.892725,56.7553648 132.566524,56.7553648 C129.888399,56.7553648 127.210314,56.2575157 124.532189,55.2618026 C121.854064,54.2660894 119.862667,52.8755454 118.351931,51.0901288 L112.480687,85.7682403 C114.128764,83.7768141 116.308999,82.0257586 119.021459,80.5150215 C121.733919,79.0042843 124.669512,78.248927 127.828326,78.248927 C130.849801,78.248927 133.407715,78.6952745 135.502146,79.5879828 C137.596577,80.4806912 139.313298,81.6652287 140.652361,83.1416309 C141.991423,84.6180331 142.952787,86.317587 143.536481,88.2403433 C144.120175,90.1630997 144.412017,92.1544961 144.412017,94.2145923 C144.412017,95.3133102 144.360516,96.4635133 144.257511,97.6652361 C144.154506,98.8669588 144.000001,100.017162 143.793991,101.11588 L138.128755,133.665236 L114.95279,133.665236 L120,104.927039 C120.13734,104.30901 120.223176,103.673823 120.257511,103.021459 C120.291846,102.369095 120.309013,101.836912 120.309013,101.424893 C120.309013,100.051495 119.931334,98.9356266 119.175966,98.0772532 C118.420597,97.2188798 117.218892,96.7896996 115.570815,96.7896996 C113.991408,96.7896996 112.600864,97.4935552 111.399142,98.9012876 C110.197419,100.30902 109.356226,102.351918 108.875536,105.030043 L103.828326,133.665236 L80.6523605,133.665236 Z M141.064378,27.1416309 C141.064378,24.944195 140.360522,23.0901363 138.95279,21.5793991 C137.545057,20.068662 135.502159,19.3133047 132.824034,19.3133047 C131.244627,19.3133047 129.819749,19.6394817 128.549356,20.2918455 C127.278964,20.9442093 126.180262,21.8025698 125.253219,22.8669528 C124.326176,23.9313358 123.605153,25.1845421 123.090129,26.6266094 C122.575105,28.0686767 122.317597,29.5793912 122.317597,31.1587983 C122.317597,33.424904 123.021452,35.29613 124.429185,36.7725322 C125.836917,38.2489344 127.845481,38.9871245 130.454936,38.9871245 C132.103013,38.9871245 133.579393,38.6781147 134.88412,38.0600858 C136.188848,37.442057 137.304716,36.5836965 138.23176,35.4849785 C139.158803,34.3862606 139.862659,33.1330542 140.343348,31.7253219 C140.824037,30.3175895 141.064378,28.7897078 141.064378,27.1416309 Z" id="Combined-Shape"></path>
                <path d="M205.098712,123.055794 C204.824033,124.360522 204.53219,126.042908 204.223176,128.103004 C203.914162,130.1631 203.690988,132.017159 203.553648,133.665236 L181.304721,133.665236 C181.373391,132.635188 181.476394,131.45065 181.613734,130.111588 C181.751074,128.772525 181.888411,127.622322 182.025751,126.660944 L181.613734,126.660944 C180.034327,128.85838 177.819757,130.781108 174.969957,132.429185 C172.120157,134.077261 168.978558,134.901288 165.545064,134.901288 C162.52359,134.901288 159.965676,134.45494 157.871245,133.562232 C155.776814,132.669523 154.060093,131.484986 152.72103,130.008584 C151.381968,128.532181 150.420604,126.832628 149.83691,124.909871 C149.253216,122.987115 148.961373,120.995718 148.961373,118.935622 C148.961373,117.836904 149.012875,116.686701 149.11588,115.484979 C149.218885,114.283256 149.37339,113.133053 149.579399,112.034335 L155.244635,79.4849785 L178.420601,79.4849785 L173.373391,108.223176 C173.236051,108.841205 173.150215,109.476392 173.11588,110.128755 C173.081545,110.781119 173.064378,111.313303 173.064378,111.725322 C173.064378,113.098719 173.442056,114.214588 174.197425,115.072961 C174.952793,115.931335 176.154498,116.360515 177.802575,116.360515 C179.381982,116.360515 180.772526,115.656659 181.974249,114.248927 C183.175972,112.841195 184.017165,110.798297 184.497854,108.120172 L189.648069,79.4849785 L212.72103,79.4849785 L205.098712,123.055794 Z" id="Path"></path>
            </g>
            <path d="M36,0 L191,0 C206.337116,3.05199014e-14 228.593486,6.51366369 241,15 L446,145 C460.868121,155.169702 476.219188,176.655235 480,194 L497,261 C502.653608,284.90951 486.909836,305 462,305 L109,305 C85.1385975,305 61.5416001,286.541514 56,263 L1,44 C-4.71197148,20.0716176 10.9644579,0 36,0 Z M36,11 C18.217864,11 7.65206925,24.5379815 12,42 L67,262 C71.0912784,279.874621 90.4132047,295 109,295 L463,295 C480.672444,295 491.312218,281.412777 487,264 L471,197 C467.161215,182.437442 453.459693,163.24665 441,155 L236,24 C225.017613,16.9368579 204.746895,11 192,11 L36,11 Z" id="Path-2" fill-rule="nonzero"></path>
        </g>
    </g>
</svg>
